<svg xmlns="http://www.w3.org/2000/svg" width="109" height="41" viewBox="0 0 109 41">
  <g fill="#fff">
    <path d="M24.5084225,-2.88635016e-13 L24.4839339,0.013830345 C26.5296414,0.115236381 28.1908321,0.774284911 29.467506,1.99097594 C30.7869572,3.24843442 31.5840843,4.96354545 31.8588873,7.13630901 L31.885,7.375 L31.8998515,7.37586207 L31.894,7.461 L31.8998515,7.5026738 C31.8292924,7.9685086 31.4306434,8.32758621 30.9481273,8.32758621 L30.0124637,8.32758621 C29.5218573,8.32758621 29.1144859,7.97121528 29.0350917,7.50321585 L29.0198351,7.50267376 C28.771129,5.7192513 28.2314368,4.42780749 27.4007585,3.62834225 C26.5700802,2.82887701 25.4086228,2.42914439 23.9163863,2.42914439 C22.0859096,2.42914439 20.6508755,3.12611408 19.6112841,4.52005348 C18.626408,5.84062764 18.1080522,7.69014695 18.0562166,10.0686114 L18.051897,10.4699198 L18.051897,12.6377005 C18.051897,15.0668449 18.544335,16.9988859 19.5292111,18.4338235 C20.5140871,19.8687611 21.8919188,20.5862299 23.6627061,20.5862299 C25.254425,20.5862299 26.4755719,20.2146836 27.3261467,19.4715909 C28.1235605,18.7749415 28.6695967,17.5940908 28.9642551,15.9290386 L29.0198351,15.5895722 C29.062105,15.0764055 29.4901057,14.6724138 30.0124637,14.6724138 L30.0124637,14.6724138 L30.9481273,14.6724138 C31.47375,14.6724138 31.8998515,15.0985152 31.8998515,15.6241379 L31.897,15.589 L31.8998515,15.5895722 L31.898,15.599 L31.8998515,15.6241379 L31.895,15.624 L31.8526249,15.9589181 C31.5403713,18.1480356 30.7080257,19.8519033 29.3555883,21.0705214 C28.0911968,22.2098053 26.45807,22.8445613 24.4562079,22.9747893 L24.5084225,23 L15.8809463,23 C14.8265845,23 13.9627811,22.1841222 13.886432,21.1492623 L13.8809463,21 L13.8809463,14.3505687 C13.8809463,13.2962069 13.0650685,12.4324035 12.0302086,12.3560544 L11.8809463,12.3505687 L4.87812277,12.3505687 C3.82376097,12.3505687 2.95995764,13.1664465 2.8836085,14.2013063 L2.87812277,14.3505687 L2.87812277,21.5609386 C2.87812277,22.3557103 2.23383304,23 1.43906138,23 C0.691041001,23 0.0763194901,22.4292797 0.00658761821,21.6995298 L0,21.5609386 L0,1.43906138 C-3.19376061e-16,0.644289727 0.644289727,-2.88489019e-13 1.43906138,-2.88635016e-13 C2.18708176,-2.88772425e-13 2.80180328,0.570720312 2.87153515,1.30047017 L2.87812277,1.43906138 L2.87812277,7.9366265 C2.87812277,8.99098829 3.69400056,9.85479162 4.72886042,9.93114076 L4.87812277,9.9366265 L11.8809463,9.9366265 C12.935308,9.9366265 13.7991114,9.12074871 13.8754605,8.08588884 L13.8809463,7.9366265 L13.8809463,2 C13.8809463,0.945638205 14.696824,0.0818348781 15.7316839,0.00548573643 L15.8809463,-2.88635016e-13 L24.5084225,-2.88635016e-13 Z" transform="translate(40)"/>
    <path d="M1.95800781,40 L1.95800781,36.8408203 L5.13671875,36.8408203 L5.13671875,40 L6.3671875,40 L6.3671875,32.890625 L5.13671875,32.890625 L5.13671875,35.8496094 L1.95800781,35.8496094 L1.95800781,32.890625 L0.72265625,32.890625 L0.72265625,40 L1.95800781,40 Z M11.4543806,40.0976562 C12.0370629,40.0976562 12.5521996,39.9568685 12.9997907,39.675293 C13.4473819,39.3937174 13.7916202,38.9900716 14.0325056,38.4643555 C14.273391,37.9386393 14.3938337,37.327474 14.3938337,36.6308594 L14.3938337,36.6308594 L14.3938337,36.2353516 C14.3905785,35.5419922 14.2668806,34.934082 14.02274,34.4116211 C13.7785993,33.8891602 13.4327334,33.4887695 12.9851423,33.2104492 C12.5375512,32.9321289 12.024042,32.7929687 11.444615,32.7929687 C10.8651879,32.7929687 10.3516788,32.9337565 9.90408761,33.215332 C9.45649647,33.4969076 9.10981678,33.9029948 8.86404855,34.4335937 C8.61828032,34.9641927 8.49539621,35.5761719 8.49539621,36.2695312 L8.49539621,36.2695312 L8.49539621,36.6699219 C8.49865141,37.3502604 8.62316313,37.9508464 8.86893136,38.4716797 C9.11469959,38.992513 9.46300688,39.3937174 9.91385324,39.675293 C10.3646996,39.9568685 10.8782087,40.0976562 11.4543806,40.0976562 Z M11.4543806,39.0820312 C10.914016,39.0820312 10.4916527,38.8688151 10.1872907,38.4423828 C9.88292876,38.0159505 9.73074777,37.4121094 9.73074777,36.6308594 L9.73074777,36.6308594 L9.73074777,36.2207031 C9.73725818,35.4557292 9.89106678,34.8640951 10.1921735,34.4458008 C10.4932803,34.0275065 10.9107608,33.8183594 11.444615,33.8183594 C11.99149,33.8183594 12.4138532,34.0283203 12.7117048,34.4482422 C13.0095564,34.8681641 13.1584821,35.4720052 13.1584821,36.2597656 L13.1584821,36.2597656 L13.1584821,36.6308594 C13.1584821,37.4316406 13.011184,38.0403646 12.7165876,38.4570312 C12.4219913,38.8736979 12.0012556,39.0820312 11.4543806,39.0820312 Z M18.9390346,40.0976562 C19.7170294,40.0976562 20.3330776,39.9226888 20.7871791,39.5727539 C21.2412807,39.222819 21.4683315,38.7516276 21.4683315,38.1591797 C21.4683315,37.7945964 21.3902065,37.4763997 21.2339565,37.2045898 C21.0777065,36.9327799 20.8319382,36.6918945 20.4966518,36.4819336 C20.1613653,36.2719727 19.7170294,36.0847982 19.163644,35.9204102 C18.6102586,35.7560221 18.2131231,35.5867513 17.9722377,35.4125977 C17.7313523,35.238444 17.6109096,35.0211589 17.6109096,34.7607422 C17.6109096,34.4514974 17.7224005,34.210612 17.9453823,34.0380859 C18.168364,33.8655599 18.4816778,33.7792969 18.8853237,33.7792969 C19.3182664,33.7792969 19.6511114,33.8842773 19.8838588,34.0942383 C20.1166062,34.3041992 20.2329799,34.5947266 20.2329799,34.9658203 L20.2329799,34.9658203 L21.4634487,34.9658203 C21.4634487,34.5556641 21.3527716,34.1821289 21.1314174,33.8452148 C20.9100632,33.5083008 20.6057013,33.2486979 20.2183315,33.0664062 C19.8309617,32.8841146 19.389881,32.7929687 18.8950893,32.7929687 C18.1496466,32.7929687 17.543364,32.9785156 17.0762416,33.3496094 C16.6091192,33.7207031 16.375558,34.1927083 16.375558,34.765625 C16.375558,35.4199219 16.6994513,35.9505208 17.3472377,36.3574219 C17.6857794,36.5690104 18.1415086,36.7610677 18.7144252,36.9335937 C19.2873419,37.1061198 19.6836635,37.2770182 19.9033901,37.4462891 C20.1231166,37.6155599 20.2329799,37.8564453 20.2329799,38.1689453 C20.2329799,38.4554036 20.1247442,38.6857096 19.9082729,38.8598633 C19.6918015,39.0340169 19.3687221,39.1210937 18.9390346,39.1210937 C18.4409877,39.1210937 18.0585007,39.0104167 17.7915737,38.7890625 C17.5246466,38.5677083 17.391183,38.2552083 17.391183,37.8515625 L17.391183,37.8515625 L16.1558315,37.8515625 C16.1558315,38.297526 16.2754604,38.688151 16.5147182,39.0234375 C16.753976,39.358724 17.0892625,39.621582 17.5205776,39.8120117 C17.9518927,40.0024414 18.4247117,40.0976562 18.9390346,40.0976562 Z M24.6805246,40 L24.6805246,37.3583984 L26.1502511,37.3583984 C26.9738188,37.3583984 27.6142811,37.1647135 28.0716378,36.7773437 C28.5289946,36.389974 28.757673,35.8479818 28.757673,35.1513672 C28.757673,34.4710286 28.5241118,33.9241536 28.0569894,33.5107422 C27.589867,33.0973307 26.9591704,32.890625 26.1648996,32.890625 L26.1648996,32.890625 L23.445173,32.890625 L23.445173,40 L24.6805246,40 Z M26.1648996,36.3671875 L24.6805246,36.3671875 L24.6805246,33.8867187 L26.1990792,33.8867187 C26.6092355,33.8932292 26.9315011,34.0112305 27.1658761,34.2407227 C27.4002511,34.4702148 27.5174386,34.7770182 27.5174386,35.1611328 C27.5174386,35.5517578 27.4018787,35.8504232 27.1707589,36.0571289 C26.9396391,36.2638346 26.6043527,36.3671875 26.1648996,36.3671875 L26.1648996,36.3671875 Z M32.0333426,40 L32.0333426,32.890625 L30.8028739,32.890625 L30.8028739,40 L32.0333426,40 Z M37.2230748,40 L37.2230748,33.8867187 L39.4398717,33.8867187 L39.4398717,32.890625 L33.8002232,32.890625 L33.8002232,33.8867187 L35.9974888,33.8867187 L35.9974888,40 L37.2230748,40 Z M41.3288225,40 L41.9049944,38.3447266 L44.6589007,38.3447266 L45.2399554,40 L46.5290179,40 L43.8385882,32.890625 L42.7301897,32.890625 L40.0446429,40 L41.3288225,40 Z M44.312221,37.3486328 L42.2516741,37.3486328 L43.2819475,34.3994141 L44.312221,37.3486328 Z M52.6904297,40 L52.6904297,39.0136719 L49.4628906,39.0136719 L49.4628906,32.890625 L48.2275391,32.890625 L48.2275391,40 L52.6904297,40 Z M60.5503627,40.0976562 C61.3609096,40.0976562 62.0103237,39.8852539 62.4986049,39.4604492 C62.9868862,39.0356445 63.2668341,38.4440104 63.3384487,37.6855469 L63.3384487,37.6855469 L62.1079799,37.6855469 C62.0428757,38.1933594 61.8882533,38.5563151 61.6441127,38.7744141 C61.3999721,38.992513 61.0353888,39.1015625 60.5503627,39.1015625 C60.0197638,39.1015625 59.6169317,38.8997396 59.3418666,38.4960937 C59.0668015,38.0924479 58.929269,37.5065104 58.929269,36.7382812 L58.929269,36.7382812 L58.929269,36.1083984 C58.9357794,35.3499349 59.0830776,34.7745768 59.3711635,34.3823242 C59.6592494,33.9900716 60.0718471,33.7939453 60.6089565,33.7939453 C61.0711961,33.7939453 61.4219448,33.9070638 61.6612026,34.1333008 C61.9004604,34.3595378 62.0493862,34.7281901 62.1079799,35.2392578 L62.1079799,35.2392578 L63.3384487,35.2392578 C63.2603237,34.461263 62.9820033,33.8590495 62.5034877,33.4326172 C62.0249721,33.0061849 61.3934617,32.7929687 60.6089565,32.7929687 C60.0262742,32.7929687 59.5127651,32.9313151 59.0684291,33.2080078 C58.6240932,33.4847005 58.2831101,33.8785807 58.0454799,34.3896484 C57.8078497,34.9007161 57.6890346,35.4915365 57.6890346,36.1621094 L57.6890346,36.1621094 L57.6890346,36.8261719 C57.6988002,37.4804687 57.8208705,38.055013 58.0552455,38.5498047 C58.2896205,39.0445964 58.6224656,39.4262695 59.0537807,39.6948242 C59.4850958,39.9633789 59.9839565,40.0976562 60.5503627,40.0976562 Z M68.0691964,40.0976562 C68.6518787,40.0976562 69.1670154,39.9568685 69.6146066,39.675293 C70.0621977,39.3937174 70.406436,38.9900716 70.6473214,38.4643555 C70.8882068,37.9386393 71.0086496,37.327474 71.0086496,36.6308594 L71.0086496,36.6308594 L71.0086496,36.2353516 C71.0053943,35.5419922 70.8816964,34.934082 70.6375558,34.4116211 C70.3934152,33.8891602 70.0475493,33.4887695 69.5999581,33.2104492 C69.152367,32.9321289 68.6388579,32.7929687 68.0594308,32.7929687 C67.4800037,32.7929687 66.9664946,32.9337565 66.5189035,33.215332 C66.0713123,33.4969076 65.7246326,33.9029948 65.4788644,34.4335937 C65.2330962,34.9641927 65.1102121,35.5761719 65.1102121,36.2695312 L65.1102121,36.2695312 L65.1102121,36.6699219 C65.1134673,37.3502604 65.237979,37.9508464 65.4837472,38.4716797 C65.7295154,38.992513 66.0778227,39.3937174 66.5286691,39.675293 C66.9795154,39.9568685 67.4930246,40.0976562 68.0691964,40.0976562 Z M68.0691964,39.0820312 C67.5288318,39.0820312 67.1064686,38.8688151 66.8021066,38.4423828 C66.4977446,38.0159505 66.3455636,37.4121094 66.3455636,36.6308594 L66.3455636,36.6308594 L66.3455636,36.2207031 C66.352074,35.4557292 66.5058826,34.8640951 66.8069894,34.4458008 C67.1080962,34.0275065 67.5255766,33.8183594 68.0594308,33.8183594 C68.6063058,33.8183594 69.0286691,34.0283203 69.3265206,34.4482422 C69.6243722,34.8681641 69.773298,35.4720052 69.773298,36.2597656 L69.773298,36.2597656 L69.773298,36.6308594 C69.773298,37.4316406 69.6259998,38.0403646 69.3314035,38.4570312 C69.0368071,38.8736979 68.6160714,39.0820312 68.0691964,39.0820312 Z M74.367327,40 L74.367327,34.9560547 L77.5362723,40 L78.7716239,40 L78.7716239,32.890625 L77.5460379,32.890625 L77.5460379,37.9541016 L74.367327,32.890625 L73.1319754,32.890625 L73.1319754,40 L74.367327,40 Z M82.3597935,40 L82.3597935,34.9560547 L85.5287388,40 L86.7640904,40 L86.7640904,32.890625 L85.5385045,32.890625 L85.5385045,37.9541016 L82.3597935,32.890625 L81.124442,32.890625 L81.124442,40 L82.3597935,40 Z M93.765346,40 L93.765346,39.0136719 L90.35226,39.0136719 L90.35226,36.8261719 L93.2721819,36.8261719 L93.2721819,35.8496094 L90.35226,35.8496094 L90.35226,33.8867187 L93.7311663,33.8867187 L93.7311663,32.890625 L89.1169085,32.890625 L89.1169085,40 L93.765346,40 Z M98.3007812,40.0976562 C99.1113281,40.0976562 99.7607422,39.8852539 100.249023,39.4604492 C100.737305,39.0356445 101.017253,38.4440104 101.088867,37.6855469 L101.088867,37.6855469 L99.8583984,37.6855469 C99.7932943,38.1933594 99.6386719,38.5563151 99.3945312,38.7744141 C99.1503906,38.992513 98.7858073,39.1015625 98.3007812,39.1015625 C97.7701823,39.1015625 97.3673503,38.8997396 97.0922852,38.4960937 C96.8172201,38.0924479 96.6796875,37.5065104 96.6796875,36.7382812 L96.6796875,36.7382812 L96.6796875,36.1083984 C96.6861979,35.3499349 96.8334961,34.7745768 97.121582,34.3823242 C97.409668,33.9900716 97.8222656,33.7939453 98.359375,33.7939453 C98.8216146,33.7939453 99.1723633,33.9070638 99.4116211,34.1333008 C99.6508789,34.3595378 99.7998047,34.7281901 99.8583984,35.2392578 L99.8583984,35.2392578 L101.088867,35.2392578 C101.010742,34.461263 100.732422,33.8590495 100.253906,33.4326172 C99.7753906,33.0061849 99.1438802,32.7929687 98.359375,32.7929687 C97.7766927,32.7929687 97.2631836,32.9313151 96.8188477,33.2080078 C96.3745117,33.4847005 96.0335286,33.8785807 95.7958984,34.3896484 C95.5582682,34.9007161 95.4394531,35.4915365 95.4394531,36.1621094 L95.4394531,36.1621094 L95.4394531,36.8261719 C95.4492187,37.4804687 95.5712891,38.055013 95.8056641,38.5498047 C96.0400391,39.0445964 96.3728841,39.4262695 96.8041992,39.6948242 C97.2355143,39.9633789 97.734375,40.0976562 98.3007812,40.0976562 Z M105.86356,40 L105.86356,33.8867187 L108.080357,33.8867187 L108.080357,32.890625 L102.440709,32.890625 L102.440709,33.8867187 L104.637974,33.8867187 L104.637974,40 L105.86356,40 Z"/>
  </g>
</svg>
